<svg xmlns="http://www.w3.org/2000/svg" width="1440" height="900"><path d="M948,377L952,151L768,311Z" fill="#af8cc4" stroke="#af8cc4" stroke-width="1.51"/><path d="M952,151L743,216L768,311Z" fill="#a781be" stroke="#a781be" stroke-width="1.51"/><path d="M948,377L1169,170L952,151Z" fill="#b290c6" stroke="#b290c6" stroke-width="1.51"/><path d="M952,151L766,-47L743,216Z" fill="#9c74b6" stroke="#9c74b6" stroke-width="1.51"/><path d="M1152,-28L919,-42L952,151Z" fill="#9f77b9" stroke="#9f77b9" stroke-width="1.51"/><path d="M948,377L1169,395L1169,170Z" fill="#bc9ece" stroke="#bc9ece" stroke-width="1.51"/><path d="M919,-42L766,-47L952,151Z" fill="#986eb4" stroke="#986eb4" stroke-width="1.51"/><path d="M768,311L897,617L948,377Z" fill="#bb9ccc" stroke="#bb9ccc" stroke-width="1.51"/><path d="M948,377L1118,558L1169,395Z" fill="#c6add5" stroke="#c6add5" stroke-width="1.51"/><path d="M768,311L695,622L897,617Z" fill="#bda0ce" stroke="#bda0ce" stroke-width="1.51"/><path d="M743,216L543,385L768,311Z" fill="#a680bd" stroke="#a680bd" stroke-width="1.51"/><path d="M518,106L543,385L743,216Z" fill="#9c72b6" stroke="#9c72b6" stroke-width="1.51"/><path d="M897,617L1118,558L948,377Z" fill="#c8aed6" stroke="#c8aed6" stroke-width="1.51"/><path d="M1169,170L1152,-28L952,151Z" fill="#aa86c0" stroke="#aa86c0" stroke-width="1.51"/><path d="M1169,170L1263,132L1152,-28Z" fill="#af8cc4" stroke="#af8cc4" stroke-width="1.51"/><path d="M1351,402L1263,132L1169,170Z" fill="#bea1cf" stroke="#bea1cf" stroke-width="1.51"/><path d="M1351,402L1169,170L1169,395Z" fill="#c4aad3" stroke="#c4aad3" stroke-width="1.51"/><path d="M766,-47L518,106L743,216Z" fill="#9367b0" stroke="#9367b0" stroke-width="1.51"/><path d="M543,385L695,622L768,311Z" fill="#b18ec5" stroke="#b18ec5" stroke-width="1.51"/><path d="M1348,574L1351,402L1169,395Z" fill="#d2bede" stroke="#d2bede" stroke-width="1.51"/><path d="M262,319L465,573L543,385Z" fill="#a37bbb" stroke="#a37bbb" stroke-width="1.51"/><path d="M766,-47L476,-5L518,106Z" fill="#8859a8" stroke="#8859a8" stroke-width="1.51"/><path d="M919,-42L773,-218L766,-47Z" fill="#9367b0" stroke="#9367b0" stroke-width="1.51"/><path d="M766,-47L773,-218L476,-5Z" fill="#8b5daa" stroke="#8b5daa" stroke-width="1.51"/><path d="M848,-304L773,-218L919,-42Z" fill="#9469b1" stroke="#9469b1" stroke-width="1.51"/><path d="M1152,-28L1091,-207L919,-42Z" fill="#a078b9" stroke="#a078b9" stroke-width="1.51"/><path d="M1256,-102L1091,-207L1152,-28Z" fill="#a680bd" stroke="#a680bd" stroke-width="1.51"/><path d="M1466,170L1256,-102L1263,132Z" fill="#b393c7" stroke="#b393c7" stroke-width="1.51"/><path d="M1263,132L1256,-102L1152,-28Z" fill="#a984bf" stroke="#a984bf" stroke-width="1.51"/><path d="M366,167L543,385L518,106Z" fill="#9467b0" stroke="#9467b0" stroke-width="1.51"/><path d="M543,385L465,573L695,622Z" fill="#b391c6" stroke="#b391c6" stroke-width="1.51"/><path d="M476,-5L366,167L518,106Z" fill="#8758a7" stroke="#8758a7" stroke-width="1.51"/><path d="M1118,558L1348,574L1169,395Z" fill="#d3bede" stroke="#d3bede" stroke-width="1.51"/><path d="M897,617L1096,755L1118,558Z" fill="#d4c1df" stroke="#d4c1df" stroke-width="1.51"/><path d="M922,814L1096,755L897,617Z" fill="#d9c6e2" stroke="#d9c6e2" stroke-width="1.51"/><path d="M754,786L897,617L695,622Z" fill="#cab2d8" stroke="#cab2d8" stroke-width="1.51"/><path d="M465,573L573,698L695,622Z" fill="#bc9ecd" stroke="#bc9ecd" stroke-width="1.51"/><path d="M573,698L754,786L695,622Z" fill="#c7aed5" stroke="#c7aed5" stroke-width="1.51"/><path d="M754,786L922,814L897,617Z" fill="#d3bfde" stroke="#d3bfde" stroke-width="1.51"/><path d="M1309,710L1348,574L1118,558Z" fill="#decee6" stroke="#decee6" stroke-width="1.51"/><path d="M309,-294L277,-37L476,-5Z" fill="#7a469e" stroke="#7a469e" stroke-width="1.51"/><path d="M1091,-207L848,-304L919,-42Z" fill="#9a70b5" stroke="#9a70b5" stroke-width="1.51"/><path d="M1351,402L1466,170L1263,132Z" fill="#c3a9d3" stroke="#c3a9d3" stroke-width="1.51"/><path d="M1490,342L1466,170L1351,402Z" fill="#cdb6da" stroke="#cdb6da" stroke-width="1.51"/><path d="M1510,491L1490,342L1351,402Z" fill="#d7c3e1" stroke="#d7c3e1" stroke-width="1.51"/><path d="M1348,574L1510,491L1351,402Z" fill="#dbcae4" stroke="#dbcae4" stroke-width="1.51"/><path d="M1096,755L1309,710L1118,558Z" fill="#decfe7" stroke="#decfe7" stroke-width="1.51"/><path d="M1343,951L1309,710L1096,755Z" fill="#ede5f1" stroke="#ede5f1" stroke-width="1.51"/><path d="M41,165L262,319L366,167Z" fill="#8656a6" stroke="#8656a6" stroke-width="1.51"/><path d="M366,167L262,319L543,385Z" fill="#9569b2" stroke="#9569b2" stroke-width="1.51"/><path d="M1562,730L1510,491L1348,574Z" fill="#e6daec" stroke="#e6daec" stroke-width="1.51"/><path d="M922,814L1054,936L1096,755Z" fill="#e4d7eb" stroke="#e4d7eb" stroke-width="1.51"/><path d="M754,786L941,931L922,814Z" fill="#ddcde5" stroke="#ddcde5" stroke-width="1.51"/><path d="M679,909L941,931L754,786Z" fill="#dbcbe4" stroke="#dbcbe4" stroke-width="1.51"/><path d="M573,698L679,909L754,786Z" fill="#cfb8db" stroke="#cfb8db" stroke-width="1.51"/><path d="M576,912L679,909L573,698Z" fill="#cfb8db" stroke="#cfb8db" stroke-width="1.51"/><path d="M284,805L573,698L465,573Z" fill="#b99bcc" stroke="#b99bcc" stroke-width="1.51"/><path d="M476,-5L277,-37L366,167Z" fill="#7f4da1" stroke="#7f4da1" stroke-width="1.51"/><path d="M478,-327L476,-5L773,-218Z" fill="#8656a7" stroke="#8656a7" stroke-width="1.51"/><path d="M941,931L1054,936L922,814Z" fill="#e6daec" stroke="#e6daec" stroke-width="1.51"/><path d="M262,319L256,580L465,573Z" fill="#a37cbb" stroke="#a37cbb" stroke-width="1.51"/><path d="M848,-304L478,-327L773,-218Z" fill="#8d5fab" stroke="#8d5fab" stroke-width="1.51"/><path d="M679,909L744,1115L941,931Z" fill="#ddcde6" stroke="#ddcde6" stroke-width="1.51"/><path d="M284,805L576,912L573,698Z" fill="#c5abd4" stroke="#c5abd4" stroke-width="1.51"/><path d="M1091,-207L1352,-318L848,-304Z" fill="#a27bbb" stroke="#a27bbb" stroke-width="1.51"/><path d="M848,-304L1352,-318L478,-327Z" fill="#976cb3" stroke="#976cb3" stroke-width="1.51"/><path d="M1256,-102L1352,-318L1091,-207Z" fill="#a984c0" stroke="#a984c0" stroke-width="1.51"/><path d="M1594,-82L1352,-318L1256,-102Z" fill="#b291c6" stroke="#b291c6" stroke-width="1.51"/><path d="M256,580L284,805L465,573Z" fill="#b18fc5" stroke="#b18fc5" stroke-width="1.51"/><path d="M262,319L165,554L256,580Z" fill="#9d74b7" stroke="#9d74b7" stroke-width="1.51"/><path d="M114,415L165,554L262,319Z" fill="#956bb2" stroke="#956bb2" stroke-width="1.51"/><path d="M1466,170L1594,-82L1256,-102Z" fill="#b493c8" stroke="#b493c8" stroke-width="1.51"/><path d="M1669,95L1594,-82L1466,170Z" fill="#b99acb" stroke="#b99acb" stroke-width="1.51"/><path d="M1669,95L1466,170L1690,302Z" fill="#c4a9d3" stroke="#c4a9d3" stroke-width="1.51"/><path d="M41,165L114,415L262,319Z" fill="#8959a9" stroke="#8959a9" stroke-width="1.51"/><path d="M1690,302L1466,170L1490,342Z" fill="#cbb3d8" stroke="#cbb3d8" stroke-width="1.51"/><path d="M478,-327L309,-294L476,-5Z" fill="#7d4ba1" stroke="#7d4ba1" stroke-width="1.51"/><path d="M277,-37L41,165L366,167Z" fill="#7c49a0" stroke="#7c49a0" stroke-width="1.51"/><path d="M1510,491L1690,302L1490,342Z" fill="#d4c0df" stroke="#d4c0df" stroke-width="1.51"/><path d="M1665,621L1690,302L1510,491Z" fill="#dccbe4" stroke="#dccbe4" stroke-width="1.51"/><path d="M131,704L284,805L256,580Z" fill="#af8cc4" stroke="#af8cc4" stroke-width="1.51"/><path d="M1309,710L1562,730L1348,574Z" fill="#ebe0ef" stroke="#ebe0ef" stroke-width="1.51"/><path d="M1343,951L1562,730L1309,710Z" fill="#f5f0f7" stroke="#f5f0f7" stroke-width="1.51"/><path d="M1102,1138L1343,951L1054,936Z" fill="#f1eaf4" stroke="#f1eaf4" stroke-width="1.51"/><path d="M1054,936L1343,951L1096,755Z" fill="#efe7f3" stroke="#efe7f3" stroke-width="1.51"/><path d="M54,-65L41,165L277,-37Z" fill="#6f3997" stroke="#6f3997" stroke-width="1.51"/><path d="M1562,730L1665,621L1510,491Z" fill="#e7dced" stroke="#e7dced" stroke-width="1.51"/><path d="M941,931L1102,1138L1054,936Z" fill="#eae0ef" stroke="#eae0ef" stroke-width="1.51"/><path d="M576,912L744,1115L679,909Z" fill="#d7c4e1" stroke="#d7c4e1" stroke-width="1.51"/><path d="M485,1089L744,1115L576,912Z" fill="#d3bfdf" stroke="#d3bfdf" stroke-width="1.51"/><path d="M165,554L131,704L256,580Z" fill="#a580bd" stroke="#a580bd" stroke-width="1.51"/><path d="M284,805L378,1001L576,912Z" fill="#c9b2d7" stroke="#c9b2d7" stroke-width="1.51"/><path d="M-64,559L131,704L165,554Z" fill="#9f77b9" stroke="#9f77b9" stroke-width="1.51"/><path d="M-64,559L165,554L114,415Z" fill="#976cb2" stroke="#976cb2" stroke-width="1.51"/><path d="M1794,-253L1585,-280L1594,-82Z" fill="#b493c8" stroke="#b493c8" stroke-width="1.51"/><path d="M1594,-82L1585,-280L1352,-318Z" fill="#b493c8" stroke="#b493c8" stroke-width="1.51"/><path d="M83,-301L54,-65L277,-37Z" fill="#6e3796" stroke="#6e3796" stroke-width="1.51"/><path d="M108,974L378,1001L284,805Z" fill="#c2a6d2" stroke="#c2a6d2" stroke-width="1.51"/><path d="M1669,95L1737,-27L1594,-82Z" fill="#b493c8" stroke="#b493c8" stroke-width="1.51"/><path d="M1858,-51L1737,-27L1669,95Z" fill="#b494c8" stroke="#b494c8" stroke-width="1.51"/><path d="M1858,-51L1669,95L1991,111Z" fill="#b899cb" stroke="#b899cb" stroke-width="1.51"/><path d="M939,1218L1102,1138L941,931Z" fill="#e8ddee" stroke="#e8ddee" stroke-width="1.51"/><path d="M378,1001L485,1089L576,912Z" fill="#cdb6da" stroke="#cdb6da" stroke-width="1.51"/><path d="M1665,621L1938,480L1690,302Z" fill="#dbcae4" stroke="#dbcae4" stroke-width="1.51"/><path d="M1562,730L1727,719L1665,621Z" fill="#eee5f2" stroke="#eee5f2" stroke-width="1.51"/><path d="M1665,987L1727,719L1562,730Z" fill="#f8f4f9" stroke="#f8f4f9" stroke-width="1.51"/><path d="M1588,986L1562,730L1343,951Z" fill="#fefdff" stroke="#fefdff" stroke-width="1.51"/><path d="M348,1217L939,1218L744,1115Z" fill="#d7c5e2" stroke="#d7c5e2" stroke-width="1.51"/><path d="M744,1115L939,1218L941,931Z" fill="#e2d4e9" stroke="#e2d4e9" stroke-width="1.51"/><path d="M54,-65L-37,-20L41,165Z" fill="#6a3293" stroke="#6a3293" stroke-width="1.51"/><path d="M41,165L-148,360L114,415Z" fill="#8251a4" stroke="#8251a4" stroke-width="1.51"/><path d="M-67,-274L-37,-20L54,-65Z" fill="#662d91" stroke="#662d91" stroke-width="1.51"/><path d="M-37,-20L-88,159L41,165Z" fill="#6f3997" stroke="#6f3997" stroke-width="1.51"/><path d="M309,-294L83,-301L277,-37Z" fill="#733d99" stroke="#733d99" stroke-width="1.51"/><path d="M478,-327L83,-301L309,-294Z" fill="#76429c" stroke="#76429c" stroke-width="1.51"/><path d="M131,704L108,974L284,805Z" fill="#b797ca" stroke="#b797ca" stroke-width="1.51"/><path d="M-148,360L-64,559L114,415Z" fill="#8d60ac" stroke="#8d60ac" stroke-width="1.51"/><path d="M1393,1135L1343,951L1102,1138Z" fill="#f7f2f9" stroke="#f7f2f9" stroke-width="1.51"/><path d="M1393,1135L1588,986L1343,951Z" fill="#ffffff" stroke="#ffffff" stroke-width="1.51"/><path d="M1455,1172L1393,1135L1102,1138Z" fill="#f9f5fb" stroke="#f9f5fb" stroke-width="1.51"/><path d="M1737,-27L1794,-253L1594,-82Z" fill="#b493c8" stroke="#b493c8" stroke-width="1.51"/><path d="M1991,111L1669,95L1690,302Z" fill="#c2a7d2" stroke="#c2a7d2" stroke-width="1.51"/><path d="M-242,113L-148,360L-88,159Z" fill="#79459e" stroke="#79459e" stroke-width="1.51"/><path d="M-88,159L-148,360L41,165Z" fill="#7a479f" stroke="#7a479f" stroke-width="1.51"/><path d="M1858,-51L1794,-253L1737,-27Z" fill="#b493c8" stroke="#b493c8" stroke-width="1.51"/><path d="M1585,-280L1921,-272L1352,-318Z" fill="#b493c8" stroke="#b493c8" stroke-width="1.51"/><path d="M-84,715L131,704L-64,559Z" fill="#a078b9" stroke="#a078b9" stroke-width="1.51"/><path d="M-45,891L108,974L131,704Z" fill="#b493c8" stroke="#b493c8" stroke-width="1.51"/><path d="M378,1001L348,1217L485,1089Z" fill="#c9b1d7" stroke="#c9b1d7" stroke-width="1.51"/><path d="M1759,1178L1665,987L1588,986Z" fill="#ffffff" stroke="#ffffff" stroke-width="1.51"/><path d="M1588,986L1665,987L1562,730Z" fill="#ffffff" stroke="#ffffff" stroke-width="1.51"/><path d="M1393,1135L1455,1172L1588,986Z" fill="#ffffff" stroke="#ffffff" stroke-width="1.51"/><path d="M939,1218L1455,1172L1102,1138Z" fill="#f1eaf4" stroke="#f1eaf4" stroke-width="1.51"/><path d="M-234,614L-84,715L-64,559Z" fill="#9d74b7" stroke="#9d74b7" stroke-width="1.51"/><path d="M1727,719L1938,480L1665,621Z" fill="#e7dbed" stroke="#e7dbed" stroke-width="1.51"/><path d="M1875,779L1938,480L1727,719Z" fill="#ebe1f0" stroke="#ebe1f0" stroke-width="1.51"/><path d="M-220,-31L-242,113L-88,159Z" fill="#6d3796" stroke="#6d3796" stroke-width="1.51"/><path d="M83,-301L-67,-274L54,-65Z" fill="#682f92" stroke="#682f92" stroke-width="1.51"/><path d="M80,1142L348,1217L378,1001Z" fill="#c2a7d2" stroke="#c2a7d2" stroke-width="1.51"/><path d="M485,1089L348,1217L744,1115Z" fill="#cfbadc" stroke="#cfbadc" stroke-width="1.51"/><path d="M1938,480L1983,362L1690,302Z" fill="#d4c0df" stroke="#d4c0df" stroke-width="1.51"/><path d="M1858,-51L1921,-272L1794,-253Z" fill="#b493c8" stroke="#b493c8" stroke-width="1.51"/><path d="M1983,362L1991,111L1690,302Z" fill="#c9b2d7" stroke="#c9b2d7" stroke-width="1.51"/><path d="M1665,987L1875,779L1727,719Z" fill="#f9f6fa" stroke="#f9f6fa" stroke-width="1.51"/><path d="M1938,480L1952,919L1983,362Z" fill="#e5d9ec" stroke="#e5d9ec" stroke-width="1.51"/><path d="M108,974L80,1142L378,1001Z" fill="#bea1cf" stroke="#bea1cf" stroke-width="1.51"/><path d="M-84,715L-45,891L131,704Z" fill="#a984c0" stroke="#a984c0" stroke-width="1.51"/><path d="M-220,-31L-88,159L-37,-20Z" fill="#6a3293" stroke="#6a3293" stroke-width="1.51"/><path d="M-148,360L-234,614L-64,559Z" fill="#9367b0" stroke="#9367b0" stroke-width="1.51"/><path d="M-84,715L-317,800L-45,891Z" fill="#ac88c2" stroke="#ac88c2" stroke-width="1.51"/><path d="M-67,-274L-220,-31L-37,-20Z" fill="#662d91" stroke="#662d91" stroke-width="1.51"/><path d="M1991,111L1921,-272L1858,-51Z" fill="#b493c8" stroke="#b493c8" stroke-width="1.51"/><path d="M1794,-253L1921,-272L1585,-280Z" fill="#b493c8" stroke="#b493c8" stroke-width="1.51"/><path d="M-309,415L-234,614L-148,360Z" fill="#8f62ad" stroke="#8f62ad" stroke-width="1.51"/><path d="M-45,891L80,1142L108,974Z" fill="#b697ca" stroke="#b697ca" stroke-width="1.51"/><path d="M-152,1145L80,1142L-45,891Z" fill="#b493c8" stroke="#b493c8" stroke-width="1.51"/><path d="M-300,-205L-309,415L-242,113Z" fill="#703a97" stroke="#703a97" stroke-width="1.51"/><path d="M-242,113L-309,415L-148,360Z" fill="#804fa3" stroke="#804fa3" stroke-width="1.51"/><path d="M1875,779L1952,919L1938,480Z" fill="#f1e9f4" stroke="#f1e9f4" stroke-width="1.51"/><path d="M1665,987L1952,919L1875,779Z" fill="#fefefe" stroke="#fefefe" stroke-width="1.51"/><path d="M1759,1178L1952,919L1665,987Z" fill="#ffffff" stroke="#ffffff" stroke-width="1.51"/><path d="M1455,1172L1759,1178L1588,986Z" fill="#ffffff" stroke="#ffffff" stroke-width="1.51"/><path d="M939,1218L1759,1178L1455,1172Z" fill="#fcfafd" stroke="#fcfafd" stroke-width="1.51"/><path d="M-220,-31L-300,-205L-242,113Z" fill="#662d91" stroke="#662d91" stroke-width="1.51"/><path d="M-67,-274L-300,-205L-220,-31Z" fill="#662d91" stroke="#662d91" stroke-width="1.51"/><path d="M-309,415L-317,800L-234,614Z" fill="#9c72b6" stroke="#9c72b6" stroke-width="1.51"/><path d="M-234,614L-317,800L-84,715Z" fill="#a47dbc" stroke="#a47dbc" stroke-width="1.51"/><path d="M-351,947L-317,800L-309,415Z" fill="#a57fbd" stroke="#a57fbd" stroke-width="1.51"/><path d="M80,1142L-152,1145L348,1217Z" fill="#b99acb" stroke="#b99acb" stroke-width="1.51"/><path d="M-351,947L-152,1145L-45,891Z" fill="#b493c8" stroke="#b493c8" stroke-width="1.51"/><path d="M1759,1178L1998,1131L1952,919Z" fill="#ffffff" stroke="#ffffff" stroke-width="1.51"/><path d="M1952,919L1998,1131L1983,362Z" fill="#f7f3f9" stroke="#f7f3f9" stroke-width="1.51"/><path d="M1983,362L1998,1131L1991,111Z" fill="#e1d2e8" stroke="#e1d2e8" stroke-width="1.51"/><path d="M-317,800L-351,947L-45,891Z" fill="#b291c6" stroke="#b291c6" stroke-width="1.51"/><path d="M-300,-205L-351,947L-309,415Z" fill="#8859a8" stroke="#8859a8" stroke-width="1.51"/><path d="M-152,1145L-292,1155L348,1217Z" fill="#b493c8" stroke="#b493c8" stroke-width="1.51"/><path d="M-351,947L-292,1155L-152,1145Z" fill="#b493c8" stroke="#b493c8" stroke-width="1.51"/></svg>